PathFileType	4	(X/Y/Z)	C:\Users\Biomechanik\SynologyDrive\AlexP\Athlete_03\Athlete_3_25_03_31\Walking_09\marker_experimental.trc
DataRate	CameraRate	NumFrames	NumMarkers	Units	OrigDataRate	OrigDataStartFrame	OrigNumFrames
200.000000	200.000000	4	53	mm	200.000000	0	222
Frame#	Time	GLAB			RFHD			LFHD			C7			T6			SPINMOL			SPINM2			SPINM3			T12			BELTOL			BELT2			BELT3			SACROL			SACR2			SACR3			LTHOL			LTH2			LTH3			LSHAOL			LSHA2			LSHA3			LHEE			LTOE			LM5			RTH2			RTH3			RSHAOL			RSHA2			RSHA3			RHEE			RTOE			RM5			STRN			XIPH			LACR			LUAOL			LUA2			LUA3			LLAOL			LLA2			LLA3			LWRR			LWRU			RACR			RUAOL			RUA2			RUA3			RLAOL			RLA2			RLA3			RWRR			RWRU			RTHOL			
		X1	Y1	Z1	X2	Y2	Z2	X3	Y3	Z3	X4	Y4	Z4	X5	Y5	Z5	X6	Y6	Z6	X7	Y7	Z7	X8	Y8	Z8	X9	Y9	Z9	X10	Y10	Z10	X11	Y11	Z11	X12	Y12	Z12	X13	Y13	Z13	X14	Y14	Z14	X15	Y15	Z15	X16	Y16	Z16	X17	Y17	Z17	X18	Y18	Z18	X19	Y19	Z19	X20	Y20	Z20	X21	Y21	Z21	X22	Y22	Z22	X23	Y23	Z23	X24	Y24	Z24	X25	Y25	Z25	X26	Y26	Z26	X27	Y27	Z27	X28	Y28	Z28	X29	Y29	Z29	X30	Y30	Z30	X31	Y31	Z31	X32	Y32	Z32	X33	Y33	Z33	X34	Y34	Z34	X35	Y35	Z35	X36	Y36	Z36	X37	Y37	Z37	X38	Y38	Z38	X39	Y39	Z39	X40	Y40	Z40	X41	Y41	Z41	X42	Y42	Z42	X43	Y43	Z43	X44	Y44	Z44	X45	Y45	Z45	X46	Y46	Z46	X47	Y47	Z47	X48	Y48	Z48	X49	Y49	Z49	X50	Y50	Z50	X51	Y51	Z51	X52	Y52	Z52	X53	Y53	Z53	

1	0	-487.1519775390627	1567.018310546875	254.6779174804687	-542.213317871094	1588.3369140625	317.1324157714843	-528.1918334960939	1590.546630859375	179.9903259277343	-708.9948730468751	1403.129638671875	230.8116302490233	-768.7640991210939	1235.774169921875	229.3100128173827	-778.1439819335939	1195.139282226562	209.0318145751952	-782.0875854492189	1188.69970703125	258.9186096191405	-773.6777343750001	1131.362548828125	226.1334075927733	-749.1307983398439	1065.392944335938	230.8529968261717	-787.0999755859376	1031.738647460938	224.170211791992	-780.7159423828126	1027.8818359375	273.9918518066405	-790.8615112304689	968.9771728515625	244.1860351562499	-777.582763671875	927.94921875	228.7764892578124	-765.5065307617188	920.406005859375	278.0988769531249	-791.7058715820312	866.410400390625	250.0128784179686	-774.98046875	673.4119873046875	48.86074829101548	-832.086669921875	636.0558471679688	90.01364898681625	-792.6986083984375	617.0582275390625	66.65435028076158	-910.6099243164062	345.7114257812499	69.64839935302717	-980.454833984375	312.3107604980468	82.27224731445294	-935.0986938476562	290.5605163574218	80.48310089111311	-1083.134399414062	146.3061828613281	177.0239410400389	-894.8336181640625	37.40873718261713	171.1754150390623	-940.5887451171875	34.39043807983393	71.96857452392561	-502.5246887207032	616.6870727539062	422.094512939453	-542.2086791992189	591.685546875	404.657745361328	-450.8268127441407	316.9413757324219	405.9071655273437	-391.8597106933594	265.5891723632812	410.0847473144531	-438.0888061523438	257.4036254882812	394.2118530273437	-368.5640258789063	41.06888198852537	301.4084472656249	-175.9553985595704	123.1894378662109	309.3963317871093	-207.6669311523438	79.64587402343749	408.7067565917968	-539.4205932617189	1296.934204101562	235.328872680664	-523.6625366210939	1154.392822265625	228.6655120849609	-624.3634643554689	1368.88525390625	61.46477890014637	-600.8666992187501	1224.468383789062	-42.59236526489269	-599.7377319335939	1162.573364257812	-64.13238525390636	-557.5872192382814	1176.508911132812	-41.02329254150401	-469.0827331542969	997.0274658203125	-81.02725982666024	-456.8503417968751	921.7401123046875	-60.78818511962899	-423.1529541015626	958.7017211914062	-66.93430328369148	-338.8898315429688	902.893310546875	-43.63176727294928	-330.3272399902344	939.24169921875	26.01445960998529	-632.932556152344	1353.986938476562	402.8305358886718	-686.9580688476565	1213.882202148438	497.2354431152343	-678.3811645507815	1150.190673828125	512.5249023437499	-727.6776123046877	1164.033813476562	513.3935546874999	-746.7125244140627	947.928466796875	559.8472900390624	-713.5929565429689	891.1173095703125	603.0893554687499	-749.4979858398439	886.0267944335938	569.5139770507811	-732.8216552734376	800.7574462890625	597.3665161132811	-682.5092163085939	771.8343505859375	539.8030395507811	nan	nan	nan	
2	0.005	-483.0363769531252	1567.022338867188	255.4645996093749	-538.0800781250002	1588.342041015625	317.9396667480468	-524.0985717773439	1590.544067382812	180.7842254638671	-704.8666992187501	1403.057495117188	231.7130737304686	-764.4670410156251	1235.644653320312	230.070602416992	-773.8171386718751	1195.006713867188	209.7566070556639	-777.7514648437501	1188.527709960938	259.6384887695311	-769.2817993164064	1131.223022460938	226.8157958984374	-744.6654663085939	1065.239624023438	231.4517211914061	-782.4462280273439	1031.460815429688	224.6424713134764	-776.0962524414064	1027.613525390625	274.4731140136717	-786.1262207031251	968.6968383789062	244.6551055908202	-772.9966430664062	927.7747802734375	229.2458190917967	-760.88525390625	920.2742309570312	278.5702514648436	-786.9413452148438	866.2054443359375	250.4996490478514	-770.4863891601562	673.3933715820312	49.2037200927733	-827.4793090820312	636.0070190429688	90.49532318115219	-788.1629638671875	617.025634765625	66.99559783935533	-907.1237182617188	346.5287475585937	69.59053039550764	-977.230712890625	313.7277832031249	82.28283691406232	-932.023681640625	291.5655212402343	80.45645141601545	-1080.722900390625	148.8401184082031	177.132125854492	-894.9098510742188	37.18955230712885	171.280548095703	-940.1715698242188	34.61271286010737	71.96958160400374	-498.0318603515626	616.8019409179688	422.1406249999999	-537.8435668945314	591.7604370117188	405.0441284179686	-447.6528015136719	316.7874450683594	406.0123901367187	-388.9963684082032	265.0191650390625	410.0620727539062	-435.3290710449219	257.2292175292969	394.2301025390624	-367.6050109863282	41.27894973754881	301.3517150878906	-174.139877319336	120.3314590454101	309.3961181640624	-206.3499450683595	77.26847839355467	408.6241149902343	-535.1475219726564	1296.963623046875	236.1220397949218	-519.2203369140626	1154.468505859375	229.3524475097655	-620.1909790039064	1368.898803710938	62.34007263183582	-596.7269897460939	1224.554809570312	-41.7580909729005	-595.6701049804689	1162.692749023438	-63.48247528076183	-553.6099243164064	1176.459106445312	-40.17234802246104	-465.5784606933594	996.8135986328125	-80.44936370849618	-453.3831787109376	921.4820556640625	-60.27477264404305	-419.7228393554688	958.4346923828125	-66.40685272216804	-335.4863281250001	902.486328125	-43.19363403320319	-326.9138488769532	938.69287109375	26.54327011108392	-628.686706542969	1353.775390625	403.677032470703	-682.574645996094	1213.474487304688	497.9159240722655	-673.9860839843752	1149.749755859375	513.1271972656249	-723.2406005859377	1163.577880859375	514.0274047851561	-742.2791748046877	947.4320678710938	560.1470947265624	-709.2301635742189	890.5590209960938	603.3350830078124	-745.0988769531251	885.521240234375	569.7337036132811	-728.4536132812501	800.2260131835938	597.4978027343749	-678.2305908203126	771.3177490234375	539.8682861328124	-572.3351440429689	643.3030395507812	413.475616455078	
3	0.01	-478.3079528808595	1567.0625	256.3627014160155	-533.3273925781252	1588.387451171875	318.8609008789061	-519.3967285156251	1590.573608398438	181.6917114257812	-700.1194458007814	1403.006713867188	232.753463745117	-759.5225219726564	1235.525756835938	230.943649291992	-768.8364868164064	1194.885375976562	210.585006713867	-772.7592773437501	1188.357666015625	260.4611206054686	-764.2199096679689	1131.0927734375	227.5914306640624	-739.5330810546876	1065.09716796875	232.1242065429686	-777.0803833007814	1031.188232421875	225.165084838867	-770.7772216796876	1027.352905273438	275.0065307617186	-780.6735229492189	968.4219360351562	245.1753082275389	-767.7329711914062	927.5988159179688	229.7653503417967	-755.5902099609375	920.16064453125	279.0951843261718	-781.4555053710938	865.9948120117188	251.0485687255858	-765.2536010742188	673.3523559570312	49.6032562255858	-822.1011962890625	635.9118041992188	91.05561828613266	-782.868896484375	616.9649047851562	67.38306427001939	-903.0014038085938	347.4831237792968	69.51544189453108	-973.416748046875	315.3697814941406	82.33611297607403	-928.3718872070312	292.7421569824218	80.42492675781233	-1077.766845703125	151.7971191406249	177.2697143554686	-894.974853515625	36.96043777465815	171.4147186279295	-939.677978515625	34.89981460571283	71.98752593994124	-492.9603271484376	616.9505004882812	422.2481994628905	-532.9096069335939	591.8814086914062	405.4866638183593	-444.0092773437501	316.6881103515625	406.1690063476562	-385.7144165039063	264.4531555175781	410.0985412597656	-432.1476440429688	257.1039428710938	394.2908630371093	-366.5144348144532	41.58312988281248	301.3144226074218	-172.0760040283204	117.1041259765625	309.4103088378906	-204.8706512451173	74.60251617431639	408.5440368652343	-530.2375488281251	1297.038818359375	237.038833618164	-514.1134033203126	1154.597290039062	230.1530151367187	-615.4050903320314	1368.942504882812	63.34294128417957	-591.9889526367189	1224.672241210938	-40.79850769042979	-591.0134887695314	1162.850341796875	-62.73753738403331	-549.0552978515626	1176.419677734375	-39.1955451965333	-461.5911865234376	996.5789184570312	-79.78582763671884	-449.4526062011719	921.1917724609375	-59.6977081298829	-415.8218078613282	958.1265869140625	-65.81468200683601	-331.6288146972657	902.0022583007812	-42.71183776855475	-323.0365600585938	938.0367431640625	27.13296318054193	-623.8078613281252	1353.565185546875	404.6537780761718	-677.5251464843752	1213.032348632812	498.7032470703124	-668.9133300781252	1149.271118164062	513.8166503906249	-718.129821777344	1163.076293945312	514.7635498046874	-737.1469726562502	946.8833618164062	560.4941406249999	-704.1652832031251	889.9381103515625	603.6121826171874	-740.0039062500001	884.9622192382812	569.9884033203124	-723.3880004882814	799.6369018554688	597.6461181640624	-673.2719116210939	770.7525024414062	539.9356079101561	-567.7971191406251	643.3343505859375	413.9065856933593	
4	0.015	-473.0045776367189	1567.149291992188	257.3632202148436	-527.9921875000002	1588.484497070312	319.8868713378905	-514.1245727539064	1590.644775390625	182.7039642333984	-694.7896728515626	1402.987426757812	233.9255828857421	-753.9683837890626	1235.42724609375	231.9211578369139	-763.2397460937501	1194.78564453125	211.5084381103514	-767.1483764648439	1188.19970703125	261.3779907226561	-758.5304565429689	1130.982421875	228.4507904052733	-733.7755737304689	1064.976928710938	232.859664916992	-771.0416870117189	1030.93798828125	225.7272338867186	-764.7998046875001	1027.117553710938	275.5814208984374	-774.5457763671876	968.1701049804688	245.7362670898436	-761.8363037109375	927.4297485351562	230.3239898681639	-749.6693115234375	920.0774536132812	279.6635742187499	-775.2903442382812	865.78759765625	251.6512451171874	-759.3032836914062	673.282958984375	50.05706024169908	-815.9695434570312	635.758056640625	91.69100952148422	-776.8336791992188	616.868896484375	67.81118774414048	-898.2396240234375	348.5711975097656	69.42070770263655	-969.0011596679688	317.2285461425781	82.43811035156232	-924.1349487304688	294.0866394042968	80.38682556152327	-1074.232421875	155.1670837402343	177.4389190673826	-895.0180053710938	36.73176193237299	171.5805206298826	-939.1074829101562	35.26102066040033	72.02783966064436	-487.376678466797	617.1384887695312	422.4340820312499	-527.4696655273439	592.0601806640625	405.9819335937499	-439.9249572753907	316.6671447753906	406.3886413574218	-382.0408630371094	263.9216918945312	410.2131652832031	-428.5663757324219	257.0514526367188	394.4083557128906	-365.3066711425782	41.99261093139646	301.3053283691406	-169.7904663085938	113.5537719726562	309.4423522949218	-203.2534179687501	71.69161224365233	408.4710998535156	-524.7305908203126	1297.172119140625	238.0732421874999	-508.3825988769532	1154.790405273438	231.0640106201171	-610.0466308593751	1369.024658203125	64.46410369873036	-586.6965332031251	1224.825439453125	-39.72130584716808	-585.8117065429689	1163.050903320312	-61.90410614013683	-543.9645996093751	1176.396606445312	-38.1015625000001	-457.1645507812501	996.3284912109375	-79.04288482666024	-445.1059570312501	920.8736572265625	-59.0653839111329	-411.4939270019532	957.77978515625	-65.16647338867195	-327.3644409179688	901.4400634765625	-42.19694519042974	-318.7399902343751	937.2713012695312	27.77319717407221	-618.335388183594	1353.368408203125	405.7541503906249	-671.8460083007815	1212.568115234375	499.5924072265624	-663.1965942382815	1148.767822265625	514.5872802734374	-712.3816528320315	1162.54052734375	515.5983276367186	-731.3453369140627	946.2940063476562	560.8864746093749	-698.4235839843751	889.2666015625	603.9172363281249	-734.2412109375001	884.3611450195312	570.2767333984374	-717.6508178710939	799.0017700195312	597.8095703124999	-667.6598510742189	770.1519165039062	540.0023803710936	-562.6817626953126	643.4258422851562	414.392852783203	
